<svg width="200" height="200" viewBox="0 0 200 200" fill="none" xmlns="http://www.w3.org/2000/svg">
  <rect width="200" height="200" rx="32" fill="#ffffff"/>
  <path d="M70 60H130L140 110C140 126.568 126.568 140 110 140H90C73.4315 140 60 126.568 60 110V60Z" fill="#e2f0ff"/>
  <path d="M74 62L80 34H120L126 62H74Z" fill="#d3e7ff"/>
  <path d="M90 82C96.6274 82 102 87.3726 102 94C102 100.627 96.6274 106 90 106C83.3726 106 78 100.627 78 94C78 87.3726 83.3726 82 90 82Z" fill="#b1d4ff"/>
  <path d="M108 82C114.627 82 120 87.3726 120 94C120 100.627 114.627 106 108 106C101.373 106 96 100.627 96 94C96 87.3726 101.373 82 108 82Z" fill="#b1d4ff"/>
  <path d="M84 128C84 128 86 136 96 136C106 136 108 128 108 128" stroke="#90b4ee" stroke-width="4" stroke-linecap="round"/>
</svg>
